<?xml version="1.0" standalone="no"?>
<!DOCTYPE svg PUBLIC "-//W3C//DTD SVG 20010904//EN"
 "http://www.w3.org/TR/2001/REC-SVG-20010904/DTD/svg10.dtd">
<svg version="1.0" xmlns="http://www.w3.org/2000/svg"
 width="512.000000pt" height="512.000000pt" viewBox="0 0 512.000000 512.000000"
 preserveAspectRatio="xMidYMid meet">
<metadata>
Created by potrace 1.13, written by Peter Selinger 2001-2015
</metadata>
<g transform="translate(0.000000,512.000000) scale(0.100000,-0.100000)"
fill="#000000" stroke="none">
<path d="M1501 5085 c-202 -57 -328 -232 -388 -540 -13 -70 -17 -140 -17 -310
1 -224 12 -351 53 -580 11 -60 19 -110 18 -111 -1 -1 -56 -15 -122 -32 -262
-67 -520 -174 -681 -283 -155 -104 -277 -244 -327 -375 -18 -49 -22 -79 -21
-179 0 -106 3 -128 26 -187 67 -169 197 -314 408 -455 93 -62 153 -93 181 -93
34 0 89 62 89 102 0 54 -21 79 -110 135 -193 121 -320 245 -377 369 -38 83
-38 176 -1 257 91 194 390 372 827 493 69 19 132 34 142 34 13 0 21 -12 29
-42 36 -141 110 -384 156 -516 l54 -152 -60 -132 c-182 -393 -308 -751 -384
-1090 -52 -230 -60 -309 -60 -543 0 -195 3 -229 22 -300 65 -237 195 -376 387
-415 165 -34 408 41 652 203 138 92 181 131 189 173 7 41 -10 88 -40 109 -43
31 -81 19 -191 -59 -122 -86 -271 -165 -369 -195 -89 -27 -214 -28 -271 -2
-285 130 -248 824 90 1677 35 89 80 197 100 240 l36 79 52 -120 c69 -162 279
-581 367 -734 454 -788 957 -1328 1364 -1465 324 -109 580 56 670 432 122 505
-33 1363 -409 2267 -37 88 -76 170 -87 181 -26 29 -66 36 -104 18 -66 -31 -70
-95 -13 -225 124 -282 262 -693 338 -1000 89 -360 128 -662 118 -919 -10 -279
-71 -455 -185 -535 -37 -25 -55 -30 -118 -33 -92 -5 -145 8 -251 60 -406 201
-937 866 -1348 1688 -63 126 -206 444 -250 557 l-28 71 63 119 c94 176 220
389 333 562 l101 154 230 -7 c475 -13 852 -62 1251 -161 510 -126 914 -316
1122 -527 124 -125 163 -200 163 -316 0 -169 -155 -336 -436 -469 -106 -50
-134 -78 -134 -135 0 -50 13 -74 50 -93 43 -22 55 -20 169 36 146 70 262 149
356 244 123 124 182 240 192 382 25 330 -281 656 -837 891 -508 215 -1138 335
-1914 365 l-59 2 78 100 c507 651 1065 1061 1366 1005 102 -19 178 -98 220
-228 27 -84 38 -348 19 -487 -6 -49 -14 -120 -17 -157 -5 -65 -5 -68 25 -97
48 -48 116 -40 146 17 21 41 47 221 53 378 19 449 -129 728 -415 784 -392 77
-1025 -383 -1621 -1177 l-106 -141 -95 -7 c-166 -11 -412 -35 -504 -50 -49 -8
-91 -13 -92 -12 -2 2 -12 54 -23 117 -67 375 -69 736 -4 935 105 327 376 330
764 9 90 -75 117 -87 158 -73 50 18 76 75 60 134 -16 56 -235 228 -394 307
-150 76 -314 104 -424 73z m399 -1660 c0 -2 -30 -50 -66 -106 -36 -55 -109
-176 -161 -268 -52 -91 -99 -170 -103 -175 -9 -9 -82 207 -128 381 -27 101
-29 113 -14 117 30 9 170 27 305 41 163 16 167 16 167 10z"/>
<path d="M2502 2826 c-131 -43 -212 -162 -212 -312 0 -117 60 -224 158 -282
41 -24 57 -27 132 -27 75 0 91 3 132 27 61 37 113 99 139 167 30 79 23 195
-14 268 -68 132 -210 199 -335 159z"/>
</g>
</svg>
