<?xml version="1.0" standalone="no"?>
<!DOCTYPE svg PUBLIC "-//W3C//DTD SVG 20010904//EN"
 "http://www.w3.org/TR/2001/REC-SVG-20010904/DTD/svg10.dtd">
<svg version="1.0" xmlns="http://www.w3.org/2000/svg"
 width="512.000000pt" height="512.000000pt" viewBox="0 0 512.000000 512.000000"
 preserveAspectRatio="xMidYMid meet">
<metadata>
Created by potrace 1.13, written by Peter Selinger 2001-2015
</metadata>
<g transform="translate(0.000000,512.000000) scale(0.100000,-0.100000)"
fill="#000000" stroke="none">
<path d="M2446 5100 c-77 -30 -107 -56 -356 -305 l-235 -235 295 -295 c260
-261 298 -295 320 -290 135 29 262 1 359 -81 101 -85 153 -250 122 -385 l-8
-37 281 -281 281 -281 97 7 c90 6 103 4 175 -22 271 -99 337 -456 121 -650
-160 -144 -384 -138 -536 14 -94 94 -133 233 -103 371 l12 54 -258 258 c-141
141 -260 255 -265 252 -4 -3 -8 -311 -8 -684 0 -531 3 -682 13 -690 6 -6 33
-27 59 -46 100 -76 153 -195 146 -328 -18 -334 -417 -491 -657 -257 -123 119
-153 303 -75 457 29 57 100 132 154 162 l35 19 3 706 2 707 -39 20 c-56 28
-133 109 -160 166 -43 91 -50 228 -16 307 6 14 -50 75 -284 310 l-291 292
-784 -785 c-887 -887 -841 -833 -841 -985 0 -155 -89 -56 1208 -1351 634 -634
1166 -1159 1184 -1168 110 -55 206 -59 308 -13 54 25 165 133 1207 1175 1042
1042 1150 1153 1175 1207 46 102 42 198 -13 308 -21 41 -2309 2330 -2350 2351
-100 49 -193 58 -278 26z"/>
</g>
</svg>
