<?xml version="1.0" standalone="no"?>
<!DOCTYPE svg PUBLIC "-//W3C//DTD SVG 20010904//EN"
 "http://www.w3.org/TR/2001/REC-SVG-20010904/DTD/svg10.dtd">
<svg version="1.0" xmlns="http://www.w3.org/2000/svg"
 width="512.000000pt" height="512.000000pt" viewBox="0 0 512.000000 512.000000"
 preserveAspectRatio="xMidYMid meet">
<metadata>
Created by potrace 1.13, written by Peter Selinger 2001-2015
</metadata>
<g transform="translate(0.000000,512.000000) scale(0.100000,-0.100000)"
fill="#000000" stroke="none">
<path d="M860 4945 c-10 -12 -30 -65 -195 -510 -247 -667 -350 -943 -425
-1145 -43 -113 -74 -208 -71 -212 8 -9 401 -55 526 -62 205 -12 286 -20 291
-27 3 -5 22 -9 42 -9 20 0 47 -3 60 -6 l22 -6 0 -393 c0 -322 -3 -407 -16
-471 -9 -44 -20 -83 -24 -89 -4 -5 -13 -41 -20 -80 -7 -38 -16 -75 -21 -81 -5
-6 -15 -44 -24 -85 -8 -41 -19 -83 -24 -94 -19 -45 -383 -1377 -377 -1382 5
-5 190 60 926 324 420 150 518 182 533 173 16 -10 17 -9 7 11 -7 12 -8 19 -2
15 9 -5 72 12 117 34 17 8 122 40 132 40 2 0 3 -7 3 -16 0 -10 -6 -14 -14 -11
-17 7 -36 -11 -36 -35 0 -10 -4 -26 -9 -36 -6 -9 -12 -30 -16 -45 -3 -15 -10
-25 -15 -22 -6 3 -7 -1 -4 -9 4 -9 1 -16 -6 -16 -7 0 -2 -9 11 -19 13 -11 26
-17 29 -14 3 2 -4 11 -14 19 -42 30 5 12 53 -21 28 -19 55 -35 60 -35 9 0 25
-30 23 -43 -2 -8 58 -47 73 -47 6 0 3 5 -5 11 -13 9 -13 10 0 6 8 -2 14 -9 13
-15 -1 -5 4 -16 12 -22 12 -10 15 -10 15 0 0 8 3 10 8 6 4 -4 7 -13 7 -18 0
-6 6 -13 14 -16 8 -3 11 0 7 7 -4 7 -1 9 8 5 8 -3 12 -12 9 -20 -5 -14 12 -20
20 -6 2 4 3 2 1 -5 -2 -10 472 -333 489 -333 3 0 282 115 619 256 337 140 749
312 915 381 l302 126 5 61 c3 34 10 230 16 436 22 779 41 1419 55 1840 13 412
13 436 -3 450 -247 212 -1454 1211 -1460 1208 -5 -1 -133 -145 -286 -318 -152
-173 -282 -319 -289 -324 -12 -8 -75 54 -447 437 l-106 108 -752 78 c-513 52
-756 73 -762 66z m1025 -1425 l0 -95 -47 -3 -48 -3 0 -430 0 -429 50 0 50 0 0
-95 0 -95 -240 0 -240 0 0 95 0 95 45 0 45 0 0 430 0 430 -45 0 -45 0 0 100 0
100 238 -2 237 -3 0 -95z m1055 -352 c0 -482 -6 -546 -50 -608 -11 -16 -20
-32 -20 -37 0 -11 -83 -93 -94 -93 -4 0 -20 -9 -36 -20 -15 -11 -56 -26 -91
-34 -63 -15 -230 -23 -259 -13 -8 3 -32 8 -53 12 -72 12 -247 125 -247 160 0
24 25 60 81 117 31 31 59 63 62 72 9 23 19 20 52 -14 16 -16 32 -30 36 -30 5
0 28 -13 52 -30 39 -26 54 -30 116 -30 39 0 71 3 71 8 0 4 10 12 22 17 12 6
26 19 32 30 6 11 16 23 21 27 6 5 11 174 13 463 l3 455 144 0 145 0 0 -452z
m-475 -1568 l0 -95 -527 -3 -528 -2 0 100 0 100 528 -2 527 -3 0 -95z"/>
</g>
</svg>
