<?xml version="1.0" standalone="no"?>
<!DOCTYPE svg PUBLIC "-//W3C//DTD SVG 20010904//EN"
 "http://www.w3.org/TR/2001/REC-SVG-20010904/DTD/svg10.dtd">
<svg version="1.0" xmlns="http://www.w3.org/2000/svg"
 width="512.000000pt" height="512.000000pt" viewBox="0 0 512.000000 512.000000"
 preserveAspectRatio="xMidYMid meet">
<metadata>
Created by potrace 1.13, written by Peter Selinger 2001-2015
</metadata>
<g transform="translate(0.000000,512.000000) scale(0.100000,-0.100000)"
fill="#000000" stroke="none">
<path d="M1290 2545 l0 -1265 1270 0 1270 0 0 1265 0 1265 -1270 0 -1270 0 0
-1265z m1745 955 c3 -5 25 -10 48 -10 51 0 161 -27 165 -40 2 -6 9 -10 15 -10
13 0 93 -55 121 -82 22 -23 12 -42 -62 -123 -59 -64 -71 -73 -81 -58 -10 15
-94 73 -105 73 -6 0 -24 7 -40 15 -40 21 -161 21 -201 1 -16 -9 -35 -16 -41
-16 -20 0 -97 -74 -110 -107 -8 -18 -18 -33 -23 -33 -17 0 -34 -128 -26 -197
9 -89 82 -223 121 -223 7 0 17 -6 21 -13 14 -24 73 -37 162 -36 114 1 127 6
258 104 9 7 32 -10 88 -65 l76 -75 -53 -48 c-76 -68 -80 -71 -118 -86 -19 -7
-47 -19 -62 -27 -60 -32 -340 -35 -372 -4 -5 5 -15 6 -22 3 -8 -3 -14 -1 -14
4 0 6 -18 16 -40 23 -22 7 -40 17 -40 22 0 4 -7 8 -15 8 -25 0 -139 121 -172
183 -17 32 -37 81 -43 110 -7 28 -16 60 -21 69 -12 23 -12 175 0 182 4 3 11
26 15 52 10 76 63 171 137 245 81 80 166 126 264 141 39 5 77 14 85 18 21 12
78 12 85 0z m-915 -41 c14 -9 37 -19 52 -22 14 -4 54 -34 87 -68 46 -45 64
-72 72 -105 6 -24 15 -47 20 -50 11 -7 12 -177 1 -190 -5 -5 -14 -28 -21 -51
-6 -24 -16 -43 -21 -43 -6 0 -10 -6 -10 -13 0 -16 -82 -97 -98 -97 -7 0 -12
-4 -12 -9 0 -5 -17 -15 -37 -21 -21 -6 -53 -18 -71 -26 -21 -10 -83 -17 -172
-21 l-139 -6 -3 -151 -3 -151 -120 0 -120 0 -3 523 -2 524 288 -4 c242 -2 292
-6 312 -19z m345 -1814 l0 -70 -470 0 -470 0 -3 59 c-2 32 -1 65 2 72 5 12 84
14 473 12 l468 -3 0 -70z"/>
<path d="M1770 3110 l0 -150 114 0 c157 0 199 19 226 104 14 44 7 109 -16 144
-26 40 -72 52 -204 52 l-120 0 0 -150z"/>
</g>
</svg>
